<svg width="231" height="58" viewBox="0 0 231 58" fill="none" xmlns="http://www.w3.org/2000/svg">
<path d="M10.9866 39.8585L23.7333 46.8193V39.8585H28.2266V46.8193L40.9866 39.8585L25.9866 31.6619L10.9866 39.8585Z" fill="#008068"/>
<path d="M23.7333 11.5867L10.9733 18.5474L23.7333 25.5082V11.5867Z" fill="#05261E"/>
<path d="M8.73334 22.2422V36.1638L21.48 29.203L8.73334 22.2422Z" fill="#05261E"/>
<path d="M28.24 11.5867V25.5082L40.9866 18.5474L28.24 11.5867Z" fill="#05261E"/>
<path d="M43.24 36.1638V22.2422L30.48 29.203L43.24 36.1638Z" fill="#05261E"/>
<path d="M47.5067 40.9556L25.9867 52.7082L4.46667 40.9556V17.4504L25.9867 5.69776L47.5067 17.4504V40.9556ZM25.9867 0.830261L0 15.0166V43.3893L25.9867 57.5757L51.9733 43.3893V15.0166L25.9867 0.830261Z" fill="#05261E"/>
<path d="M97.96 32.4816C97.68 33.0869 96.8533 33.7174 96.1866 34.0452C94.2666 35.1549 91.0133 35.7728 87.0533 35.7728C82.5866 35.7728 79.44 34.9027 77.6933 33.1751C76.6666 32.1033 76.1466 30.7792 76.1466 29.2282C76.1466 27.6267 76.6666 26.29 77.6933 25.256C79.44 23.5032 82.5866 22.6205 87.0666 22.6205C92.5333 22.6205 94.9066 23.8437 95.5066 24.2346C96.3866 24.7516 96.7866 25.0795 96.9733 25.3317H105.84C105.733 24.8903 105.547 24.2598 105.227 23.705C103.987 21.4604 101.867 19.7202 98.92 18.5096C95.8133 17.236 91.8666 16.5803 87.1733 16.5803C79.3866 16.5803 73.2266 18.5222 69.8133 22.0404C67.8933 24.0454 66.92 26.4666 66.92 29.2282C66.92 32.2798 67.8666 34.8397 69.7466 36.8447C72.7333 40.0477 78.1466 41.8131 84.9733 41.8131C91.8 41.8131 95.8 40.1485 97.9333 38.7488L98.5333 38.3579L98.72 41.4221H106.147V27.2988H85.76V31.9394H98.2133L97.96 32.4816Z" fill="#00261D"/>
<path d="M147.48 35.2306C148.373 33.4904 148.84 31.2584 148.84 28.7868C148.84 26.4287 148.36 24.4111 147.427 22.7844C145.293 18.9636 140.533 17.0216 133.253 17.0216H111.053V41.4347H133.253C140.587 41.4221 145.373 39.3415 147.48 35.2306ZM139.64 29.0642C139.68 30.6405 139.427 31.8889 138.88 32.8977C137.733 34.8523 135.427 35.7476 131.6 35.7476H120.24V22.6583H131.733C135.587 22.6583 137.8 23.5662 138.92 25.6091L138.933 25.6343C139.36 26.5801 139.6 27.7024 139.64 29.0642Z" fill="#00261D"/>
<path d="M186.44 19.128C184.52 17.7409 181.373 17.0095 177.347 17.0095H152.893V41.4227H162.067V35.1681H177.547C182.133 35.1681 185.44 34.0962 187.4 31.9777C188.787 30.5402 189.507 28.5225 189.507 26.114C189.52 22.9489 188.493 20.6034 186.44 19.128ZM179.667 28.4469C178.92 29.4431 177.467 29.8718 174.96 29.8718H162.04V22.5454H174.96C177.28 22.5454 178.773 22.9867 179.533 23.882C180 24.399 180.24 25.2061 180.24 26.2275C180.253 27.1733 180.053 27.892 179.667 28.4469Z" fill="#00261D"/>
<path d="M219.227 26.8831C218.72 26.8579 217.307 26.757 215.68 26.6561C213.773 26.53 211.52 26.3787 209.88 26.2778C203.16 25.8239 201.72 25.5843 201.72 24.1467C201.72 22.3813 204.28 22.0787 210 22.0787C213.987 22.0787 216.867 22.6587 218.12 23.7306C218.533 24.0963 218.773 24.3611 218.907 24.689L229.147 24.6637C228.92 23.9071 228.507 23.1001 227.96 22.293C226.107 19.6954 221.547 16.6059 210.333 16.6059C199.24 16.6059 191.787 19.7962 191.787 24.5376C191.787 27.4506 193.373 30.8679 205.787 31.4984C206.373 31.5362 207.147 31.5741 208.027 31.6119C209.747 31.7002 211.88 31.8137 213.56 31.9145C219.173 32.2676 220.587 32.5577 220.587 34.1339C220.587 35.8363 218.6 36.3533 212.093 36.3533C207.267 36.3533 203.947 35.7606 202.747 34.7014C202.333 34.3105 202.04 33.9448 201.867 33.5791H191.6C191.773 34.2852 192 34.8401 192.333 35.3823C195 39.7076 201.147 41.8009 211.107 41.8009C217.587 41.8009 222.493 41.0947 225.693 39.7076C228.84 38.3457 230.373 36.3533 230.373 33.6421C230.413 28.2955 224.44 27.2236 219.227 26.8831Z" fill="#00261D"/>
</svg>
